<?xml version="1.0" encoding="iso-8859-1"?>
<!-- Generator: Adobe Illustrator 19.0.0, SVG Export Plug-In . SVG Version: 6.00 Build 0)  -->
<svg version="1.1" id="Layer_1" xmlns="http://www.w3.org/2000/svg" xmlns:xlink="http://www.w3.org/1999/xlink" x="0px" y="0px"
	 viewBox="0 0 504.123 504.123" style="enable-background:new 0 0 504.123 504.123;" xml:space="preserve">
<path style="fill:#EA0C5C;" d="M421.921,404.937c-47.529,0-128.953-32.508-212.488-84.858
	C106.561,255.598,9.202,164.911,38.48,118.185c7.901-12.619,22.607-18.999,43.709-18.999c47.569,0,128.992,32.524,212.512,84.874
	c102.865,64.465,200.231,155.136,170.937,201.862C457.737,398.557,443.031,404.937,421.921,404.937z M82.197,132.97
	c-10.886,0-14.651,2.489-15.084,3.167c-7.152,11.414,40.149,79.998,160.28,155.309c87.836,55.044,161.004,79.691,194.528,79.691
	c10.878,0,14.659-2.489,15.084-3.167c7.16-11.414-40.125-79.982-160.264-155.278C188.906,157.617,115.737,132.97,82.197,132.97z"/>
<path style="fill:#03E2B7;" d="M82.205,404.937L82.205,404.937c-21.11,0-35.808-6.388-43.717-19.015
	c-29.302-46.726,68.08-137.397,170.929-201.862c83.527-52.35,164.951-84.874,212.512-84.874c21.102,0,35.809,6.388,43.709,18.999
	c29.279,46.726-68.088,137.413-170.953,201.893C211.166,372.413,129.742,404.937,82.205,404.937z M421.929,132.97
	c-33.548,0-106.717,24.647-194.56,79.722C107.238,287.988,59.953,356.557,67.113,367.97c0.433,0.677,4.214,3.167,15.092,3.167
	c33.524,0,106.677-24.647,194.528-79.691c120.131-75.311,167.424-143.896,160.28-155.325
	C436.588,135.459,432.807,132.97,421.929,132.97z"/>
<path style="fill:#FF9D00;" d="M252.047,504.123c-55.138,0-80.258-130.662-80.258-252.062S196.909,0,252.047,0
	c55.154,0,80.266,130.662,80.266,252.062S307.202,504.123,252.047,504.123z M252.047,33.8c-13.477,0-46.458,76.477-46.458,218.262
	s32.989,218.262,46.458,218.262c13.493,0,46.474-76.477,46.474-218.262S265.54,33.8,252.047,33.8z"/>
<g>
	<path style="fill:#772477;" d="M176.799,159.508c10.303,4.435,21.11,9.468,32.366,15.108c1.229-12.658,2.71-24.529,4.411-35.541
		c-10.917-5.246-21.575-10.012-31.925-14.304C179.761,135.979,178.138,147.59,176.799,159.508z"/>
	<path style="fill:#772477;" d="M298.159,226.548c12.304,8.216,23.583,16.274,34.154,24.174c-0.032-14.115-0.386-28.349-1.095-42.48
		c-11.587-8.097-23.442-15.951-35.367-23.465C296.922,197.908,297.733,211.803,298.159,226.548z"/>
	<path style="fill:#772477;" d="M327.296,344.6c-10.287-4.443-21.094-9.476-32.351-15.108c-1.229,12.658-2.71,24.537-4.419,35.541
		c10.925,5.254,21.583,10.019,31.925,14.312C324.342,368.128,325.964,356.51,327.296,344.6z"/>
	<path style="fill:#772477;" d="M205.952,277.567c-12.304-8.216-23.583-16.282-34.162-24.198
		c0.024,14.123,0.386,28.357,1.095,42.496c11.595,8.097,23.442,15.951,35.375,23.465
		C207.188,306.215,206.377,292.305,205.952,277.567z"/>
</g>
<g>
	<path style="fill:#0793D1;" d="M294.937,174.616c11.264-5.632,22.063-10.665,32.351-15.108c-1.331-11.91-2.954-23.52-4.844-34.729
		c-10.335,4.285-21,9.058-31.925,14.312C292.235,150.095,293.708,161.965,294.937,174.616z"/>
	<path style="fill:#0793D1;" d="M171.797,250.738c10.579-7.901,21.851-15.967,34.162-24.182c0.425-14.738,1.229-28.633,2.308-41.756
		c-11.941,7.507-23.788,15.36-35.375,23.465C172.175,222.397,171.813,236.631,171.797,250.738z"/>
	<path style="fill:#0793D1;" d="M209.173,329.507c-11.264,5.624-22.071,10.658-32.366,15.108c1.339,11.902,2.962,23.52,4.852,34.737
		c10.342-4.293,21.008-9.058,31.925-14.312C211.875,354.028,210.402,342.158,209.173,329.507z"/>
	<path style="fill:#0793D1;" d="M332.313,253.393c-10.571,7.901-21.851,15.967-34.154,24.182
		c-0.425,14.746-1.229,28.641-2.308,41.763c11.934-7.507,23.788-15.36,35.367-23.465
		C331.927,281.75,332.282,267.508,332.313,253.393z"/>
</g>
<circle style="fill:#924596;" cx="252.047" cy="252.062" r="26.585"/>
<path style="fill:#772477;" d="M233.245,233.259c10.382-10.374,27.223-10.366,37.597,0c10.366,10.382,10.366,27.223,0,37.597"/>
<g>
</g>
<g>
</g>
<g>
</g>
<g>
</g>
<g>
</g>
<g>
</g>
<g>
</g>
<g>
</g>
<g>
</g>
<g>
</g>
<g>
</g>
<g>
</g>
<g>
</g>
<g>
</g>
<g>
</g>
</svg>
