<?xml version="1.0" encoding="utf-8"?>
<svg width="281px" height="441px" viewBox="0 0 281 441" version="1.1" xmlns:xlink="http://www.w3.org/1999/xlink" xmlns="http://www.w3.org/2000/svg">
  <defs>
    <path d="M0 0L281 0L281 440.123L0 440.123L0 0Z" id="path_1" />
    <clipPath id="mask_1">
      <use xlink:href="#path_1" />
    </clipPath>
  </defs>
  <g id="side-image" transform="matrix(-1 0 0 1 281 0)">
    <path d="M0 0L281 0L281 440.123L0 440.123L0 0Z" id="Background" fill="none" fill-rule="evenodd" stroke="none" />
    <g clip-path="url(#mask_1)">
      <path d="M0 13.1608L0 15.2666C0.0066399 22.533 5.89546 28.4213 13.1613 28.4273L124.764 28.4273C132.031 28.4246 137.922 22.534 137.924 15.2666L137.924 13.1608C137.931 10.081 136.849 7.09796 134.871 4.73792C134.212 3.95435 133.467 3.24799 132.649 2.6323L74.7631 2.63224C73.3096 2.63162 72.1315 1.45349 72.1309 0L13.1607 6.17665e-05C5.89638 0.0101297 0.0100371 5.89654 0 13.1609L0 13.1608Z" transform="translate(33.83203 314.98987)" id="Shape" fill="#3F3D56" fill-rule="evenodd" stroke="none" />
      <path d="M13.6871 96.8628L7.72081e-06 96.8628L0 0L13.6871 0L13.6871 96.8628Z" transform="translate(95.42908 342.89435)" id="Rectangle" fill="#3F3D56" fill-rule="evenodd" stroke="none" />
      <path d="M0 13.2063C0 14.6852 20.7407 13.7783 46.3257 13.7783C71.9107 13.7783 92.6514 14.6852 92.6514 13.2063C92.6514 11.7274 71.9107 0 46.3257 0C20.7407 0 0 11.7274 0 13.2063L0 13.2063Z" transform="translate(56.47351 426.06998)" id="Shape" fill="#3F3D56" fill-rule="evenodd" stroke="none" />
      <path d="M5.82101 28.0924L52.5256 35.5467L106.79 44.2116L125.605 47.2123C129.365 47.8055 132.897 45.2438 133.501 41.4848L134.354 36.1573L135.143 31.1984L135.796 27.1133C136.094 25.2672 135.622 23.3797 134.491 21.8911C133.828 20.985 132.948 20.2607 131.932 19.7853L59.1059 19.7853C57.6524 19.7847 56.4743 18.6066 56.4738 17.1531L56.4738 15.079C56.4745 13.6253 57.6527 12.4473 59.1062 12.4469L87.7228 12.4469L74.5302 10.3411L33.9741 3.86602L10.2957 0.0862878C6.52579 -0.510994 2.98389 2.05602 2.37818 5.82452L0.0827478 20.1854C-0.500513 23.9496 2.06138 27.4798 5.82101 28.0924L5.82101 28.0924Z" transform="translate(49.489197 297.83673)" id="Shape" fill="#32497B" fill-rule="evenodd" stroke="none" />
      <path d="M0 6.30673L0 86.5449C0.00528103 90.3508 3.08928 93.4353 6.89561 93.4411L21.4571 93.4412C25.2636 93.4358 28.3481 90.3514 28.3536 86.5449L28.3536 6.30673C28.3559 4.784 27.8479 3.30494 26.9108 2.10537C26.2169 1.18369 25.2955 0.458184 24.2368 0L4.10605 6.17665e-05C3.05194 0.461334 2.13459 1.1866 1.44253 2.10581C0.506825 3.30611 -0.000895614 4.78468 3.08832e-05 6.30667L0 6.30673Z" transform="translate(156.27905 317.62207)" id="Shape" fill="#32497B" fill-rule="evenodd" stroke="none" />
      <path d="M0.0383338 18.9168C0.112361 19.6324 0.297043 20.3322 0.585801 20.991C1.02425 21.9972 1.69982 22.8823 2.55476 23.5706L2.58663 23.5916L44.1323 57.2935L44.7425 57.7779L53.3448 64.7583L55.9451 66.864L100.934 66.864L98.3437 64.7582L62.7887 35.91L38.9627 16.5795L20.422 1.54472C19.3369 0.660654 18.0064 0.131377 16.6106 0.0285979C16.605 0.0226683 16.5975 0.0189623 16.5895 0.0181593C16.1755 -0.0117356 15.7596 -0.00469425 15.3469 0.0390982C14.7291 0.101544 14.123 0.250401 13.5466 0.481346C13.1525 0.623965 12.7776 0.814946 12.4305 1.04984C11.776 1.44904 11.1954 1.95843 10.7145 2.55546L1.68089 13.6842L1.54414 13.8632C0.387407 15.279 -0.154841 17.0987 0.0383338 18.9168L0.0383338 18.9168Z" transform="translate(112.35748 169.20389)" id="Shape" fill="#32497B" fill-rule="evenodd" stroke="none" />
      <path d="M1.25694 23.6765C2.0398 25.6341 3.17853 27.4297 4.61549 28.9724L32.2741 58.684C33.624 59.924 35.4122 60.5755 37.2434 60.4945C39.0747 60.4135 40.7983 59.6067 42.0335 58.2524L42.8026 57.3784L43.1394 56.9994L55.0894 43.5966L60.2272 37.8269C60.5688 37.4713 60.8658 37.0753 61.1115 36.6478C61.238 36.4371 61.3536 36.2161 61.459 35.995C61.8898 35.0111 62.0879 33.941 62.0379 32.8681C61.9674 31.0236 61.1503 29.2869 59.7743 28.0565L27.7044 3.54592C24.1658 0.832581 19.7106 -0.398301 15.2809 0.113619C15.2754 0.10769 15.2679 0.103922 15.2598 0.103181C14.276 0.226529 13.3039 0.430729 12.3536 0.713743C11.9326 0.829617 11.5223 0.976991 11.1008 1.13493C8.38192 2.15791 5.9712 3.8618 4.0994 6.08335C-0.0512739 10.9605 -1.14667 17.7405 1.25697 23.6766L1.25694 23.6765Z" transform="translate(113.687256 169.11893)" id="Shape" fill="#2F2E41" fill-rule="evenodd" stroke="none" />
      <path d="M0 52.7713C0 23.6265 23.6265 0 52.7713 0C81.9162 0 105.543 23.6265 105.543 52.7713C105.543 81.9162 81.9162 105.543 52.7713 105.543C23.6265 105.543 0 81.9162 0 52.7713Z" transform="translate(49.039673 39.22058)" id="Circle" fill="#32497B" fill-rule="evenodd" stroke="none" />
      <path d="M5.8222 28.0822L25.3946 31.1986L25.8373 31.2723L55.5907 36.0207L74.3422 39.0214L101.906 43.4223L102.696 43.5486L106.791 44.2014L125.606 47.202C129.367 47.7953 132.898 45.2336 133.502 41.4744L135.145 31.1985L135.797 27.1134C135.797 27.0924 135.808 27.0714 135.808 27.0503L26.6583 27.0503C25.2048 27.0496 24.0266 25.8715 24.0261 24.418L24.0261 22.3441C24.0268 20.8903 25.205 19.7123 26.6585 19.712L61.1496 19.7119L61.1496 8.20425L59.0439 7.86732L48.6418 6.20376L10.2866 0.0866583C6.52229 -0.51155 2.98443 2.05108 2.37937 5.81426L1.5265 11.1312L0.0839715 20.1858C-0.504354 23.9491 2.06121 27.4795 5.8222 28.0822L5.8222 28.0822Z" transform="translate(81.93689 290.57175)" id="Shape" fill="#32497B" fill-rule="evenodd" stroke="none" />
      <path d="M0 116.351C0 159.371 4.36973 185.103 71.7526 177.733C71.8472 177.722 71.9315 177.712 72.0261 177.701C84.0444 176.514 95.9306 174.241 107.539 170.91C113.572 169.148 119.435 166.851 125.059 164.045C126.385 163.372 127.659 162.666 128.912 161.94L78.6064 161.94C77.1529 161.939 75.9748 160.761 75.9743 159.308L75.9743 157.234C75.975 155.78 77.1532 154.602 78.6067 154.601L113.098 154.601L113.098 88.1031C113.104 83.8432 116.556 80.3916 120.816 80.3856L148.874 80.3856C148.632 79.6907 148.39 78.9853 148.127 78.2799C145.494 70.9962 142.374 63.898 138.788 57.0335C133.875 47.5006 128.027 38.479 121.332 30.1013C116.669 24.2632 111.435 18.9056 105.707 14.1083C95.1467 5.39061 83.6497 0 71.9839 0C28.9643 -6.17665e-05 0 73.3314 0 116.351L0 116.351Z" transform="translate(29.988708 155.68228)" id="Shape" fill="#2F2E41" fill-rule="evenodd" stroke="none" />
      <path d="M0.0548795 33.5711L0 31.599C3.66871 31.497 6.90314 31.2668 9.33356 29.4912C10.7278 28.4147 11.5849 26.785 11.6817 25.0262C11.7682 23.9497 11.3479 22.8944 10.5449 22.1721C8.93155 20.8096 6.33554 21.2506 4.44342 22.1182L2.81176 22.8664L5.94076 0L7.89453 0.267696L5.23301 19.7186C7.80401 18.9627 10.1862 19.2882 11.8179 20.6661C13.0879 21.7748 13.7666 23.4136 13.6523 25.0956C13.5358 27.4596 12.3808 29.6513 10.4968 31.084C7.37402 33.366 3.31578 33.4796 0.0548795 33.5711L0.0548795 33.5711Z" transform="translate(100.64746 77.979675)" id="Shape" fill="#2F2E41" fill-rule="evenodd" stroke="none" />
      <path d="M0 0L10.621 0L10.621 1.97205L0 1.97205L0 0Z" transform="translate(118.204285 79.92471)" id="Rectangle" fill="#2F2E41" fill-rule="evenodd" stroke="none" />
      <path d="M0 0L10.621 0L10.621 1.97205L0 1.97205L0 0Z" transform="translate(84.67938 79.92471)" id="Rectangle" fill="#2F2E41" fill-rule="evenodd" stroke="none" />
      <path d="M59.6951 77.589C63.7993 71.4109 71.0209 68.7921 78.1422 68.155C86.1578 67.438 93.9029 68.9836 101.729 70.4854C110.342 72.1381 119.457 73.6844 128.135 71.5948C135.914 69.7955 142.437 64.5261 145.831 57.2996C149.008 50.3409 149.693 42.5003 147.77 35.0961C145.736 27.2215 140.688 20.2925 134.569 15.059C122.079 4.37744 105.177 -0.423015 88.9207 0.0291461C72.7256 0.44712 57.0728 5.95095 44.18 15.7607C31.2658 25.9246 22.1782 40.1658 18.4004 56.1599C14.4502 72.0226 15.737 88.7376 22.0688 103.809C25.6262 112.061 30.7712 119.501 34.7412 127.546C38.4376 135.036 41.2843 143.744 38.9844 152.098C36.9663 159.429 31.0412 165.942 23.6028 167.932C16.6508 169.757 9.32983 166.768 5.64071 160.6C1.92227 154.736 1.83333 147.056 7.41631 142.322C10.261 139.87 13.9875 138.693 17.7246 139.066C21.4618 139.439 24.8821 141.329 27.1862 144.295C29.4512 147.237 30.465 150.953 30.0079 154.637C29.7328 156.5 32.5827 157.303 32.8603 155.424C34.2362 147.377 29.5875 139.515 21.873 136.844C14.1586 134.172 5.64373 137.475 1.74809 144.649C-1.61877 150.979 0.197846 158.615 4.47175 164.026C8.97548 169.912 16.5062 172.62 23.7274 170.95C31.5071 169.153 37.8712 162.97 40.8641 155.704C44.1961 147.615 42.6695 138.588 39.4213 130.738C35.9102 122.253 30.6962 114.643 26.5728 106.467C22.8393 99.0777 20.4635 91.0779 19.5585 82.8486C17.7474 66.3235 21.498 49.6663 30.2169 35.512C39.1037 21.5776 52.6681 11.2686 68.4732 6.43708C84.0577 1.54499 101.246 1.6948 116.505 7.70712C131.536 13.6294 146.05 26.5359 145.876 43.87C145.801 51.2746 143.052 58.8258 137.381 63.7646C130.603 69.6668 121.165 70.1713 112.644 69.2502C104.07 68.3233 95.743 65.8191 87.1313 65.1802C79.6411 64.6247 71.5601 65.2023 64.8722 68.9236C61.7577 70.6604 59.1061 73.1202 57.1408 76.0959C56.0844 77.6861 58.6453 79.169 59.695 77.5889L59.6951 77.589Z" transform="translate(0 -0.096343994)" id="Shape" fill="#2F2E41" fill-rule="evenodd" stroke="none" />
      <path d="M0.610747 18.0304C0.69478 18.2216 0.78953 18.4079 0.894533 18.5884C1.0004 18.777 1.1164 18.9598 1.24206 19.1359L24.3206 52.3535L26.1107 54.933L44.9356 82.0126L63.0974 108.155L70.4463 118.747C70.644 119.035 70.8661 119.307 71.11 119.557C72.2463 120.753 73.7746 121.5 75.416 121.663L75.6052 121.663L75.6052 76.485L73.4994 73.4528L49.8842 39.4665L24.5211 2.96408C22.3458 -0.161983 18.0515 -0.938943 14.9189 1.22684L7.13814 6.62801L2.95806 9.53387C0.231439 11.4311 -0.75525 15.0026 0.610747 18.0304L0.610747 18.0304Z" transform="translate(67.48126 188.62067)" id="Shape" fill="#32497B" fill-rule="evenodd" stroke="none" />
      <path d="M1.84735 24.983L2.88941 27.0782L2.90022 27.0887L3.18453 27.6467L20.1037 61.2328C22.0892 64.4846 26.3295 65.52 29.5902 63.5491L30.6851 62.8648L30.9586 62.6963L52.7742 49.0092C54.3468 48.0569 55.4739 46.5158 55.9049 44.7285C56.3358 42.9412 56.0349 41.0558 55.069 39.4914L31.1063 7.00018C26.2648 0.437307 17.4841 -1.83033 10.0702 1.56745C9.25849 1.93354 8.47687 2.363 7.73265 2.85194C0.442287 7.66893 -2.08724 17.181 1.84732 24.983L1.84735 24.983Z" transform="translate(62.63318 180.85733)" id="Shape" fill="#2F2E41" fill-rule="evenodd" stroke="none" />
      <path d="M0 0L0 79.2696C0.00574428 83.0763 3.09036 86.1605 6.89684 86.1657L21.4576 86.1658C25.2638 86.1601 28.348 83.0759 28.3536 79.2696L28.3536 0L0 0Z" transform="translate(188.72797 317.6221)" id="Shape" fill="#32497B" fill-rule="evenodd" stroke="none" />
      <path d="M3.08832e-05 78.9536L3.08832e-05 81.0277C0.00324274 83.2877 1.59663 85.2331 3.81161 85.6814C3.95852 85.7024 4.10605 85.734 4.25361 85.7446C4.41148 85.7551 4.56927 85.7656 4.73789 85.7656L167.046 85.7656C172.473 85.7643 176.873 81.3688 176.88 75.9425L176.88 9.82315C176.873 4.39641 172.472 0.00105003 167.046 0L46.9467 0C41.524 0.00592958 37.1295 4.40043 37.1235 9.82315L37.1235 74.2158L4.73786 74.2158C2.12128 74.2159 0.000185299 76.337 0 78.9535L3.08832e-05 78.9536Z" transform="translate(103.85724 233.96219)" id="Shape" fill="#FFFFFF" fill-rule="evenodd" stroke="none" />
      <path d="M3.08832e-05 78.9536L3.08832e-05 81.0277C0.00324274 83.2877 1.59663 85.2331 3.81161 85.6814C3.95852 85.7024 4.10605 85.734 4.25361 85.7446C4.41148 85.7551 4.56927 85.7656 4.73789 85.7656L167.046 85.7656C172.473 85.7643 176.873 81.3688 176.88 75.9425L176.88 9.82315C176.873 4.39641 172.472 0.00105003 167.046 0L46.9467 0C41.524 0.00592958 37.1295 4.40043 37.1235 9.82315L37.1235 74.2158L4.73786 74.2158C2.12128 74.2159 0.000185299 76.337 0 78.9535L3.08832e-05 78.9536ZM2.10577 81.0277L2.10577 78.9536C2.10648 77.4999 3.28474 76.3219 4.73823 76.3215L39.2293 76.3214L39.2293 9.82315C39.2356 5.56325 42.6873 2.11167 46.947 2.10568L167.046 2.10568C171.31 2.10735 174.767 5.55991 174.774 9.82315L174.774 75.9425C174.767 80.2054 171.31 83.658 167.047 83.6599L4.73789 83.6599C3.28443 83.6593 2.10636 82.4812 2.10577 81.0278L2.10577 81.0277Z" transform="translate(103.85724 233.96219)" id="Shape" fill="#3F3D56" fill-rule="evenodd" stroke="none" />
      <path d="M0 8.09662C0 3.62498 3.62498 0 8.09662 0C12.5683 0 16.1932 3.62498 16.1932 8.09662C16.1932 12.5683 12.5683 16.1932 8.09662 16.1932C3.62498 16.1932 0 12.5683 0 8.09662Z" transform="translate(202.76123 268.74942)" id="Circle" fill="#32497B" fill-rule="evenodd" stroke="none" />
      <path d="M0 0L2.10571 0L2.10571 9.47571L0 9.47571L0 0Z" transform="translate(141.01263 309.29407)" id="Rectangle" fill="#3F3D56" fill-rule="evenodd" stroke="none" />
    </g>
  </g>
</svg>