<?xml version="1.0" encoding="UTF-8" standalone="no"?> <svg id="Layer_1" data-name="Layer 1" xmlns="http://www.w3.org/2000/svg" viewBox="0 0 64 64"><defs><style>.cls-1{fill:#fff;}.cls-2{fill:#e5e5e5;}.cls-3{fill:#35251c;}</style></defs><title>Hot Espresso Coffee Cup</title><path class="cls-1" d="M22.32,53.28H40.58c7.39,0,7.52-8.11,7.52-8.11V27.38H14.8V45.17S14.8,53.28,22.32,53.28Z"/><path class="cls-2" d="M36.09,53.28h4.49c7.39,0,7.52-8.11,7.52-8.11V27.38h-12Z"/><path class="cls-3" d="M49.44,56.8H12.63a1.16,1.16,0,1,0,0,2.32h8.62a1.16,1.16,0,0,0,1.16,1.16H39.8A1.16,1.16,0,0,0,41,59.12h8.48a1.16,1.16,0,0,0,0-2.32Z"/><path class="cls-3" d="M22.42,23.71,20.8,21.19c2.9-1.87,2.39-2.66,1.46-4.1a6.2,6.2,0,0,1-.84-1.64,3.79,3.79,0,0,1,.35-3,6.81,6.81,0,0,1,3.82-2.67l.78,2.9s-2.4.7-2.06,1.94a5.14,5.14,0,0,0,.47.82C25.77,17,27.84,20.22,22.42,23.71Z"/><path class="cls-3" d="M39.85,23.71l-1.62-2.52c2.89-1.87,2.38-2.66,1.46-4.1a6.2,6.2,0,0,1-.84-1.64,3.79,3.79,0,0,1,.35-3A6.8,6.8,0,0,1,43,9.81l.79,2.9s-2.4.7-2.06,1.94a5.14,5.14,0,0,0,.47.82C43.2,17,45.27,20.22,39.85,23.71Z"/><path class="cls-3" d="M31.51,24.05,29.42,21.9c4-3.93,3-5,1.6-6.6a5.9,5.9,0,0,1-1.71-2.85c-.78-4.29,2.81-6.55,4.81-7.14L35,8.18c-.33.1-3.2,1.07-2.72,3.74a4,4,0,0,0,1,1.36C35.36,15.61,37.15,18.55,31.51,24.05Z"/><path class="cls-3" d="M57.75,31.17a6.56,6.56,0,0,0-4.29-3.62,7,7,0,0,0-3.86.24V25.88H13.3V45.17c0,3.32,1.89,9.61,9,9.61H40.58c7,0,9-6.27,9-9.61V42.8a8.86,8.86,0,0,0,3.09-.35,8.65,8.65,0,0,0,4.22-2.81A7.48,7.48,0,0,0,57.75,31.17ZM46.6,28.88V43H16.3V28.88Zm-6,22.9H22.32c-4,0-5.35-2.85-5.8-4.83H46.34C45.87,48.92,44.5,51.78,40.58,51.78ZM53.84,37.12a5,5,0,0,1-4.24,1.71V32.16a4.25,4.25,0,0,1,2.94-.74c.25.06,1,.24,1.69,1.59A3.56,3.56,0,0,1,53.84,37.12Z"/></svg>